<svg width="25" height="18" viewBox="0 0 25 18" fill="none" xmlns="http://www.w3.org/2000/svg">
<path d="M22.1426 0C23.7205 0 25 1.27947 25 2.85742V14.2861L24.9961 14.4336C24.9218 15.8942 23.7507 17.0655 22.29 17.1396L22.1426 17.1436H2.85742L2.70996 17.1396C1.24929 17.0655 0.0782471 15.8942 0.00390625 14.4336L0 14.2861V2.85742C1.84076e-07 1.27947 1.27947 8.62844e-09 2.85742 0H22.1426ZM12.1328 9.84668L2.14258 3.30078V14.2861C2.14266 14.6806 2.46298 15 2.85742 15H22.1426C22.537 15 22.8573 14.6806 22.8574 14.2861V3.05371L12.1328 9.84668ZM12.1523 7.29688L20.29 2.14355H4.28711L12.1523 7.29688Z" fill="#1E352F"/>
</svg>
